<svg xmlns="http://www.w3.org/2000/svg" xmlns:xlink="http://www.w3.org/1999/xlink" viewBox="0 0 121.8 25.89"><defs><style>.cls-1{fill:url(#linear-gradient);}.cls-2{fill:url(#linear-gradient-2);}.cls-3{fill:url(#linear-gradient-3);}.cls-4{fill:#fff;}</style><linearGradient id="linear-gradient" x1="62.09" y1="247.94" x2="-12.41" y2="214.94" gradientTransform="matrix(1, 0, 0, -1, 0, 237.5)" gradientUnits="userSpaceOnUse"><stop offset="0" stop-color="#37ffb7"/><stop offset="0.61" stop-color="#82d6ff"/><stop offset="0.96" stop-color="#118dff"/></linearGradient><linearGradient id="linear-gradient-2" x1="64.56" y1="242.38" x2="-9.94" y2="209.38" xlink:href="#linear-gradient"/><linearGradient id="linear-gradient-3" x1="68.5" y1="233.49" x2="-6" y2="200.49" xlink:href="#linear-gradient"/></defs><g id="Layer_2" data-name="Layer 2"><g id="Layer_1-2" data-name="Layer 1"><path class="cls-1" d="M18.66,25.86V19.81H6.58V15.89h11.2v-6H6.58V6.06H18.69V0H0V25.86Z"/><path class="cls-2" d="M24.62,25.86h6.61V6.06h7.14V0H17.44V6.06h7.18Z"/><path class="cls-3" d="M43.8,25.86V16.13h9.06v9.73h6.58V0H52.86V9.87H43.8V0H37.25V25.86Z"/><path class="cls-4" d="M69.79,25.86a7.28,7.28,0,0,0,4.87-1.56,4.94,4.94,0,0,0,1.87-4,4.73,4.73,0,0,0-3.19-4.51c-.46-.22-1.13-.48-2-.84l-1.73-.7c-1-.43-1.44-1-1.44-1.56,0-.86.77-1.46,2.11-1.46a6.27,6.27,0,0,1,4,1.58l2-2.95a8.49,8.49,0,0,0-6-2.35A6.76,6.76,0,0,0,65.64,9a4.8,4.8,0,0,0-1.76,3.82,4.89,4.89,0,0,0,2.86,4.48,21.62,21.62,0,0,0,2.28,1l1.58.57c1,.46,1.54,1,1.54,1.66,0,1-1,1.61-2.33,1.61A6.11,6.11,0,0,1,65,19.82l-2.16,2.83A8.63,8.63,0,0,0,69.79,25.86Z"/><path class="cls-4" d="M84.89,25.84a6.94,6.94,0,0,0,6.24-3.5l-3-1.8A3.52,3.52,0,0,1,85,22.38a3.23,3.23,0,0,1-2.4-1A3.43,3.43,0,0,1,81.65,19,3.33,3.33,0,0,1,85,15.54a3.52,3.52,0,0,1,3.12,1.88l3-1.61A6.57,6.57,0,0,0,85,12.06,6.92,6.92,0,0,0,79.87,14a6.56,6.56,0,0,0-2,4.94,6.72,6.72,0,0,0,1.95,5A6.89,6.89,0,0,0,84.89,25.84Z"/><path class="cls-4" d="M102.66,13.79a5.47,5.47,0,0,0-4.06-1.73A6.13,6.13,0,0,0,94,14a6.87,6.87,0,0,0-1.85,4.89,7.11,7.11,0,0,0,1.83,5,6.08,6.08,0,0,0,4.65,2,5.5,5.5,0,0,0,4.06-1.68v1.34h3.55V12.4h-3.55ZM95.89,19a3.46,3.46,0,0,1,.94-2.45,3.44,3.44,0,0,1,4.85,0,3.45,3.45,0,0,1,1,2.45,3.52,3.52,0,0,1-1,2.47,3.14,3.14,0,0,1-2.43,1,3.21,3.21,0,0,1-2.42-1A3.57,3.57,0,0,1,95.89,19Z"/><path class="cls-4" d="M112.64,25.55v-7a2.8,2.8,0,0,1,2.83-3.09c1.56,0,2.57,1.08,2.57,3v7.05h3.76v-8a5.35,5.35,0,0,0-1.48-4.05A5.1,5.1,0,0,0,116.69,12a4.72,4.72,0,0,0-4.15,2.18V12.4h-3.67V25.55Z"/></g></g></svg>