<?xml version="1.0" standalone="no"?>
<!DOCTYPE svg PUBLIC "-//W3C//DTD SVG 20010904//EN"
 "http://www.w3.org/TR/2001/REC-SVG-20010904/DTD/svg10.dtd">
<svg version="1.0" xmlns="http://www.w3.org/2000/svg"
 width="512.000000pt" height="512.000000pt" viewBox="0 0 512.000000 512.000000"
 preserveAspectRatio="xMidYMid meet">
<metadata>
Created by potrace 1.11, written by Peter Selinger 2001-2013
</metadata>
<g transform="translate(0.000000,512.000000) scale(0.100000,-0.100000)"
fill="#000000" stroke="none">
<path d="M1056 4578 c-14 -20 -16 -227 -16 -2010 0 -1975 0 -1988 20 -2008 20
-20 33 -20 1448 -20 1249 1 1429 2 1447 16 19 14 19 28 20 474 l0 460 -950 2
-950 3 0 305 0 305 875 2 c481 0 877 1 881 2 3 1 5 211 5 469 l0 467 -881 5
-880 5 0 295 0 295 953 3 952 2 0 459 0 460 -22 15 c-20 14 -175 16 -1455 16
l-1432 0 -15 -22z"/>
</g>
</svg>
